<svg width="16" height="12" viewBox="0 0 16 12" fill="none" xmlns="http://www.w3.org/2000/svg">
<path d="M15.6002 2.76609C15.4432 2.63706 15.2524 2.55407 15.0496 2.5266C14.8469 2.49913 14.6404 2.52828 14.4537 2.61073L10.9799 4.13057L8.96147 0.55049C8.865 0.383346 8.72523 0.244345 8.55639 0.147645C8.38755 0.0509446 8.19568 0 8.00033 0C7.80497 0 7.6131 0.0509446 7.44426 0.147645C7.27542 0.244345 7.13565 0.383346 7.03918 0.55049L5.02077 4.13057L1.54692 2.61073C1.35984 2.5284 1.15309 2.49922 0.950036 2.52646C0.746982 2.5537 0.555723 2.63629 0.39788 2.76489C0.240037 2.89349 0.121904 3.06297 0.0568371 3.25418C-0.00822989 3.44538 -0.0176367 3.65068 0.0296801 3.84687L1.77347 11.1624C1.80682 11.304 1.86904 11.4375 1.95636 11.5548C2.04369 11.6721 2.15431 11.7707 2.28151 11.8446C2.45372 11.9461 2.65062 11.9998 2.85133 12C2.9489 11.9998 3.04596 11.9862 3.13967 11.9595C6.3182 11.0948 9.67559 11.0948 12.8541 11.9595C13.1443 12.0345 13.453 11.9932 13.7123 11.8446C13.8403 11.7716 13.9515 11.6733 14.0389 11.5559C14.1264 11.4384 14.1881 11.3045 14.2203 11.1624L15.971 3.84687C16.0178 3.65063 16.0078 3.44542 15.9423 3.25444C15.8768 3.06345 15.7583 2.8943 15.6002 2.76609Z" fill="#B08D57"/>
</svg>
