<svg width="43" height="43" viewBox="0 0 43 43" fill="none" xmlns="http://www.w3.org/2000/svg">
<g>
<path d="M5.375 43C3.89687 43 2.63196 42.5192 1.58025 41.5577C0.52675 40.5945 0 39.4371 0 38.0857V15.9714C0 15.1933 0.190812 14.4562 0.572437 13.76C0.95227 13.0638 1.47813 12.4905 2.15 12.04L18.275 0.982857C18.7677 0.655238 19.2828 0.409524 19.8203 0.245714C20.3578 0.0819045 20.9177 0 21.5 0C22.0823 0 22.6422 0.0819045 23.1797 0.245714C23.7172 0.409524 24.2323 0.655238 24.725 0.982857L40.85 12.04C41.5219 12.4905 42.0486 13.0638 42.4303 13.76C42.8101 14.4562 43 15.1933 43 15.9714V38.0857C43 39.4371 42.4741 40.5945 41.4224 41.5577C40.3689 42.5192 39.1031 43 37.625 43H26.875V25.8H16.125V43H5.375Z" fill="#3D5A80"/>
</g>
</svg>
