<svg width="53" height="53" viewBox="0 0 53 53" fill="none" xmlns="http://www.w3.org/2000/svg">
<g>
<path d="M13.6 22.5C13.6 23.6404 13.147 24.7342 12.3406 25.5406C11.5342 26.347 10.4404 26.8 9.3 26.8C8.15957 26.8 7.06585 26.347 6.25944 25.5406C5.45303 24.7342 5 23.6404 5 22.5C5 21.3596 5.45303 20.2658 6.25944 19.4594C7.06585 18.653 8.15957 18.2 9.3 18.2C10.4404 18.2 11.5342 18.653 12.3406 19.4594C13.147 20.2658 13.6 21.3596 13.6 22.5ZM13.6 22.5H20.05C20.6202 22.5 21.1671 22.7265 21.5703 23.1297C21.9735 23.5329 22.2 24.0798 22.2 24.65V37.55C22.2 38.1202 21.9735 38.6671 21.5703 39.0703C21.1671 39.4735 20.6202 39.7 20.05 39.7H13.6M13.6 39.7C13.6 40.8404 13.147 41.9342 12.3406 42.7406C11.5342 43.547 10.4404 44 9.3 44C8.15957 44 7.06585 43.547 6.25944 42.7406C5.45303 41.9342 5 40.8404 5 39.7C5 38.5596 5.45303 37.4658 6.25944 36.6594C7.06585 35.853 8.15957 35.4 9.3 35.4C10.4404 35.4 11.5342 35.853 12.3406 36.6594C13.147 37.4658 13.6 38.5596 13.6 39.7ZM5 5.3C5 6.44043 5.45303 7.53415 6.25944 8.34056C7.06585 9.14697 8.15957 9.6 9.3 9.6C10.4404 9.6 11.5342 9.14697 12.3406 8.34056C13.147 7.53415 13.6 6.44043 13.6 5.3C13.6 4.15957 13.147 3.06585 12.3406 2.25944C11.5342 1.45303 10.4404 1 9.3 1C8.15957 1 7.06585 1.45303 6.25944 2.25944C5.45303 3.06585 5 4.15957 5 5.3ZM39.4 18.2C39.4 19.3404 39.853 20.4342 40.6594 21.2406C41.4658 22.047 42.5596 22.5 43.7 22.5C44.8404 22.5 45.9342 22.047 46.7406 21.2406C47.547 20.4342 48 19.3404 48 18.2C48 17.0596 47.547 15.9658 46.7406 15.1594C45.9342 14.353 44.8404 13.9 43.7 13.9C42.5596 13.9 41.4658 14.353 40.6594 15.1594C39.853 15.9658 39.4 17.0596 39.4 18.2Z" stroke="#293241" stroke-width="2" stroke-linecap="round" stroke-linejoin="round"/>
<path d="M13.6 5.29999H28.65C29.2202 5.29999 29.7671 5.52651 30.1703 5.92971C30.5735 6.33291 30.8 6.87977 30.8 7.44999V28.95C30.8 29.5202 30.5735 30.0671 30.1703 30.4703C29.7671 30.8735 29.2202 31.1 28.65 31.1H24.35M30.8 18.2H39.4" stroke="#293241" stroke-width="2" stroke-linecap="round" stroke-linejoin="round"/>
</g>
</svg>
